<?xml version="1.0" encoding="UTF-8"?>
<svg fill="#000000" data-name="Layer 1" xmlns="http://www.w3.org/2000/svg" viewBox="0 0 279.39 324.08">
  <path d="M271.4,51.32c.47-1.39.64-2.69.23-4.18-3.66-13.06-7.23-26.13-10.85-39.19q-.43-1.58-2.02-1.21c-7.33,1.79-14.66,3.54-21.99,5.33-2.3.58-4.67.87-6.63,2.52-1.94,1.66-3.99,3.2-6.14,4.56-1.73,1.09-2.45,2.34-1.7,4.3.04.06.02.15.04.23.21.94.62,1.71,1.66,2,.98.3,1.7-.11,2.34-.77.6-.58,1.15-1.24,1.81-1.73,1.06-.79,2.07-.34,2.26.94.11.75.02,1.51-.09,2.28-.15,1.02.15,1.9,1.04,2.49.87.58,1.75.4,2.6-.11.68-.41,1.36-.85,2.05-1.21.51-.28,1.07-.4,1.58.04.45.41.57.94.4,1.54-.21.72-.38,1.47-.6,2.19-.32.94-.26,1.79.49,2.52.77.73,1.62.73,2.56.41.79-.26,1.58-.57,2.41-.68,1.19-.17,1.71.49,1.47,1.66-.21.92-.83,1.62-1.26,2.43-1.04,1.83-.06,3.52,2.03,3.52.64,0,1.26-.13,1.9-.15.77-.04,1.6-.04,2.02.73.41.79-.11,1.45-.62,2.03-.45.51-1.02.9-1.43,1.43-1.39,1.68-.68,3.49,1.49,3.86.81.13,1.66.24,2.45.51,1.28.45,1.45,1.53.4,2.37-.64.51-1.41.89-2.11,1.36-.83.53-1.36,1.21-1.24,2.26.13,1.02.75,1.54,1.62,1.9.77.32,1.58.57,2.26,1.07,1,.75.94,1.83-.19,2.37-.75.36-1.58.55-2.37.81-.9.3-1.54.85-1.73,1.81-.19.98.24,1.71.98,2.28.7.55,1.45,1.02,2.03,1.68.89,1.02.6,1.98-.73,2.26-.73.17-1.51.24-2.26.26-1.07.02-1.96.32-2.41,1.41-.43,1.06.04,1.87.7,2.6.51.58,1,1.15,1.34,1.85.6,1.21.09,2.07-1.26,2.03-.79-.02-1.58-.21-2.37-.36-.96-.19-1.83-.04-2.49.77-.66.83-.57,1.68-.11,2.58.38.73.81,1.47.98,2.3.24,1.19-.23,1.73-1.45,1.7-.92-.04-1.64-.57-2.45-.9-.92-.41-1.85-.51-2.69.19-.85.68-.85,1.56-.68,2.51.11.58.28,1.17.36,1.75.08.72.19,1.49-.55,1.96-.73.47-1.38,0-1.98-.4-.49-.32-.96-.72-1.41-1.09-.75-.66-1.62-.92-2.54-.53-1,.43-1.36,1.28-1.39,2.34-.02.75.06,1.51-.13,2.26-.38,1.43-1.36,1.75-2.45.73-.49-.47-.85-1.06-1.28-1.58-.7-.83-1.47-1.49-2.66-1.22-1.13.24-1.45,1.17-1.71,2.11-.23.72-.34,1.47-.75,2.13-.72,1.19-1.68,1.24-2.41.08-.43-.72-.72-1.51-1.09-2.26-.43-.87-1.06-1.53-2.09-1.54-1.06-.04-1.68.64-2.13,1.51-.4.77-.81,1.54-1.47,2.17-.81.79-1.56.66-2.09-.36-.34-.6-.4-1.3-.49-1.96-.15-1.21-.49-2.32-1.83-2.68-1.26-.32-2.11.4-2.84,1.32-.41.55-.9,1.02-1.51,1.36-1.04.57-1.85.17-1.96-1-.08-.79-.02-1.6,0-2.39.02-.98,0-1.92-1.02-2.51-1.02-.58-1.9-.26-2.79.3-.64.41-1.24.87-1.98,1.11-1.3.4-1.94-.08-1.9-1.41.04-.81.38-1.54.64-2.28.34-.98.4-1.88-.41-2.66-.79-.77-1.71-.73-2.68-.41-.75.24-1.51.55-2.3.68-1.34.21-1.94-.58-1.53-1.88.28-.85.9-1.51,1.3-2.28.98-1.85.08-3.41-2.02-3.45-.75,0-1.51.17-2.26.17-.64.02-1.32-.11-1.66-.75-.34-.7-.08-1.34.4-1.87.41-.49.89-.92,1.34-1.38.72-.7,1.26-1.47.87-2.54-.36-1.02-1.17-1.45-2.2-1.56-.32-.02-.62-.09-.94-.15-.77-.19-1.26.09-1.62.83-1.11,2.43-2.3,4.82-3.43,7.23-3.37,7.14-6.73,14.3-10.08,21.44-3.05,6.48-6.1,12.98-9.18,19.48-1.58,3.35-3.18,6.69-4.77,10.04-.45.96-1.26,1.21-2.17,1.06-.98-.13-1.43-.79-1.39-1.79.02-.62.06-1.26.11-1.9.43-4.07.89-8.16,1.34-12.23.45-4.28.87-8.55,1.36-12.83.13-1.02-.09-1.73-.83-2.45-2.66-2.64-5.31-5.29-7.91-8.01-.58-.62-.92-.66-1.47-.02-2.56,2.9-5.39,5.56-8.1,8.31-.51.49-.7,1.04-.62,1.71.17,1.47.32,2.94.49,4.41.45,4.35.9,8.7,1.36,13.06.34,3.22.72,6.42,1,9.63.15,1.68-1.09,2.56-2.62,2-.58-.23-.83-.72-1.07-1.22-2.15-4.54-4.33-9.06-6.46-13.6-5.24-11.12-10.46-22.23-15.69-33.35-4.86-10.31-9.74-20.61-14.6-30.94-.28-.6-.66-1.07-1.19-1.45l-4.88-3.69c-.32-.21-.95.05-.92.71,0,0,.01.59.02.98.08,1-.41,1.7-1.41,1.96-.92.24-1.87.47-2.77.75-1.34.41-1.75,1.11-1.75,2.88s.4,2.34,1.71,2.75c1.04.32,2.09.57,3.11.9,1.04.34,1.22,1.21,1.07,2.13-.17,1-.11,2.19-1.58,2.3-1,.09-1.98.17-2.98.23-1.45.08-1.98.49-2.3,1.94-.08.34-.15.7-.23,1.04-.26,1.38.04,2,1.26,2.64.85.45,1.71.87,2.52,1.36,1,.6,1.07,1.47.7,2.51-.38,1.04-.73,1.98-2.11,1.79-.98-.13-1.98-.28-2.96-.45-1.17-.19-2.03.19-2.51,1.32-.19.45-.43.87-.6,1.3-.4,1.02-.24,1.87.66,2.56.72.57,1.43,1.13,2.11,1.75,1.04.94,1.09,1.53.28,2.83-.81,1.38-1.43,1.66-2.71,1.19-.94-.34-1.85-.73-2.79-1.09-.92-.34-1.71-.13-2.34.66-.3.38-.6.75-.89,1.13-.85,1.13-.81,1.81.06,2.9.57.72,1.13,1.45,1.68,2.19.77,1.06.32,1.92-.47,2.75-.79.81-1.58,1.39-2.71.64-.87-.58-1.71-1.17-2.58-1.75-.77-.55-1.56-.55-2.32.06-.49.4-1,.79-1.47,1.22-.7.64-.87,1.39-.49,2.28.41.9.83,1.81,1.24,2.71.53,1.21.24,1.96-1,2.79-1.22.79-2.09.72-2.98-.24-.64-.66-1.28-1.32-1.9-2-.72-.77-1.53-.94-2.47-.41-.45.26-.92.47-1.39.72-.98.53-1.34,1.32-1.07,2.39.21.94.38,1.88.64,2.81.32,1.24-.38,1.87-1.36,2.3-1.53.7-2.2.6-2.94-.47-.51-.77-.96-1.56-1.43-2.36-.45-.75-1.02-1.51-1.96-1.32-1.24.26-2.69.26-3.43,1.62-.15.3-.17.7-.17,1.06-.04.9,0,1.83-.02,2.75-.04,1.3-.57,1.87-1.87,2.03-1.87.28-2.34,0-2.94-1.75-.13-.38-.28-.75-.4-1.13-.79-2.58-1.09-2.77-4.15-2.51-1,.09-1.68.7-1.88,1.73-.19.94-.4,1.87-.57,2.81-.17.85-.68,1.47-1.49,1.49-1.36.06-1.22.72-.9,1.64,1.53,4.58,3.05,9.16,4.54,13.74.28.92.77,1.62,1.47,2.28,4.65,4.41,9.31,8.86,13.94,13.28,3.22,3.05,6.42,6.09,9.63,9.16,3.07,2.96,6.14,5.93,9.21,8.89.9.89,1.34,1.83.72,3.11-1.22,2.54-2.41,5.11-3.64,7.67-2.64,5.6-5.29,11.17-7.95,16.75-.15.34-.24.66-.23,1.04.21,3.98.45,7.95.6,11.95.28,6.88.53,13.77.77,20.65.04,1.09.23,2.11.85,3.07,3.81,5.8,7.56,11.63,11.34,17.47.87,1.34.87,1.36,2.34.58,7.91-4.15,15.83-8.31,23.76-12.45.55-.28.98-.64,1.32-1.17,4.82-7.27,9.67-14.55,14.47-21.84,7.97-12.1,15.94-24.17,23.89-36.27.53-.81,1.19-1.38,2.17-1.13,1.02.26,1.47,1.06,1.54,2.05.24,3.13.51,6.27.72,9.4.26,4.11.51,8.2.75,12.28.06.79.41,1.64,1.06,1.68.66.02.9-.87.94-1.58.3-4.05.6-8.1.9-12.15.24-3.22.47-6.44.73-9.65.08-.96.41-1.83,1.51-2.05,1.02-.21,1.66.41,2.17,1.17,6.76,10.27,13.53,20.52,20.31,30.77,6.01,9.12,12.04,18.24,18.05,27.38.26.4.57.75,1.02.98,8.06,4.2,16.13,8.4,24.17,12.66,1.06.57,1.58.36,2.2-.6,3.81-5.99,7.69-11.93,11.55-17.88.26-.41.47-.83.51-1.32.13-3.11.3-6.22.43-9.31.02-.3.13-.73-.26-.85-.43-.13-.62.28-.77.6-.41.85-.77,1.73-1.21,2.6-.64,1.32-1.21,1.54-2.71,1.17-1.49-.38-1.81-.77-1.75-2.24.04-.87.15-1.73.24-2.62.15-1.19-.36-2-1.49-2.41-.3-.09-.58-.23-.89-.34-1.51-.6-1.96-.49-2.98.79-.58.72-1.09,1.47-1.66,2.2-.81,1.02-1.73.72-2.68.19-.9-.51-1.77-1.04-1.36-2.32.32-1.02.66-2.03,1.02-3.05.3-.94-.02-1.64-.75-2.2-.41-.32-.87-.58-1.3-.87-.9-.6-1.81-.55-2.66.13-.62.49-1.21,1.04-1.81,1.54-1.26,1.04-1.88,1.06-2.94.15-1.34-1.13-1.47-1.85-.62-3.28.19-.32.38-.62.55-.94,1.51-2.47,1.49-2.52-.53-4.54l-.09-.09c-.73-.85-1.58-.98-2.56-.43-.81.45-1.6.9-2.43,1.3-1.22.6-1.88.36-2.81-.9-.9-1.24-.89-1.83.08-2.85.55-.58,1.13-1.13,1.68-1.71.98-1.04,1.07-1.71.4-2.88-1.21-2.09-1.7-2.43-3.28-2.05-.89.21-1.75.51-2.66.72-1.11.26-1.79-.13-2.34-1.32-.64-1.43-.55-2.11.49-2.83.81-.58,1.66-1.09,2.47-1.68.77-.55,1.04-1.28.75-2.19-.19-.55-.36-1.07-.55-1.6-.38-1.09-1.13-1.54-2.32-1.39-.9.11-1.83.09-2.75.15-1.36.06-1.75-.83-1.98-1.94-.28-1.38-.02-2.07,1.09-2.54.89-.4,1.79-.7,2.68-1.06,1.06-.4,1.47-1.17,1.36-2.26-.06-.43-.15-.87-.19-1.3-.11-1.17-.75-1.79-1.9-1.94-.9-.13-1.81-.3-2.71-.45-1.07-.19-1.58-.81-1.6-1.9-.04-1.79.19-2.32,1.41-2.6.98-.23,1.96-.36,2.96-.51,1.13-.19,1.77-.81,1.85-2,.02-.4.09-.79.17-1.17.21-1.17-.28-1.94-1.36-2.37-.85-.34-1.7-.66-2.56-1-1.09-.43-1.45-1.24-1.22-2.39.38-1.79.72-2.09,2.58-2.05h.96v.04c.36,0,.72-.02,1.07,0,1.66.06,2.09-.23,2.64-1.81l.34-1.02c.4-1.02.06-1.79-.79-2.37-.75-.53-1.54-1.02-2.3-1.54-1.07-.75-1.24-1.43-.7-2.68.6-1.43,1.22-1.83,2.54-1.54.73.15,1.47.4,2.19.6,1.92.51,2.36.3,3.45-1.6.94-1.62.87-2.09-.45-3.45-.58-.58-1.19-1.19-1.71-1.83-.81-.98-.34-1.87.34-2.68.66-.81,1.38-1.47,2.54-.79.94.53,1.92.98,2.88,1.47.72.38,1.39.28,1.98-.24.53-.49,1.02-1.02,1.49-1.56.58-.68.64-1.41.15-2.2-.53-.85-1.04-1.71-1.51-2.58-.57-1.04-.3-1.9.6-2.64,1.13-.94,1.88-1.04,2.88-.28.77.57,1.49,1.19,2.2,1.83.81.72,1.64.75,2.51.15.43-.28.87-.58,1.28-.89.89-.64,1.19-1.45.77-2.51-.36-.89-.68-1.79-.92-2.71-.34-1.17.02-1.7,1.49-2.47.96-.49,1.83-.55,2.56.4.58.75,1.15,1.53,1.73,2.3.7.89,1.53,1.22,2.62.72.4-.19.81-.34,1.22-.49.98-.38,1.49-1.06,1.38-2.13-.08-.94-.19-1.9-.26-2.85-.11-1.39.26-1.9,1.68-2.3,1.6-.43,2.2-.19,2.85,1.13.4.83.73,1.7,1.15,2.51.43.87,1.11,1.34,2.13,1.13.47-.09.94-.17,1.41-.24,1.17-.15,1.77-.81,1.87-1.98.08-.94.17-1.9.32-2.84.17-1.09.9-1.51,1.98-1.47,1.11.04,2.32-.21,2.64,1.36.17.9.36,1.81.57,2.69.24,1.11.9,1.75,2.09,1.73.43,0,.89.04,1.32.08,1.13.09,1.83-.4,2.17-1.45.32-.98.62-1.98,1.02-2.94.57-1.38,1.77-1,2.79-.89.92.09,1.58.58,1.58,1.64v2.62c.02,1.77.51,2.26,2.75,2.83,1.58.41,2.13.13,3-1.38l20.56-57.88M101.7,195.17c-.4.24-.87.4-1.28.62-1.17.66-1.21,1.66-.17,2.47.55.45,1.62.6,1.43,1.53-.17.94-1.22.68-1.92.9-1.26.41-1.53,1.36-.64,2.36.08.09.17.17.24.26.43.45,1.09.89.72,1.6-.34.66-1.07.34-1.58.4-.72-.08-1.38-.08-1.77.57-.41.66-.15,1.3.23,1.9.15.23.3.47.4.73.28.73.06,1.19-.79,1.11-.43-.04-.85-.23-1.28-.32-1.28-.34-2.05.36-1.83,1.66.09.47.3.92.38,1.39.13.85-.36,1.22-1.15.9-.36-.13-.66-.41-1-.62-1.24-.73-2.24-.21-2.32,1.21-.02.45.04.89-.02,1.32-.09.9-.55,1.11-1.28.58-.4-.26-.7-.66-1.06-.96-.94-.79-1.81-.51-2.22.64-.24.72.04,1.81-.96,2.02-1.06.21-1.07-1-1.54-1.56-.79-.98-1.77-.92-2.41.17-.04.06-.06.15-.09.21-.34.6-.38,1.56-1.32,1.47-.9-.08-.75-1.02-1-1.6s-.53-1.09-1.21-1.19c-.68-.09-1.15.24-1.53.77-.17.23-.32.45-.49.68-.26.34-.6.57-1.02.45-.47-.11-.55-.55-.57-.96,0-.23,0-.47-.02-.72-.06-.68-.13-1.39-.89-1.7-.68-.3-1.21.13-1.73.51-.23.17-.45.34-.68.47-.87.49-1.26.26-1.24-.75,0-.43.13-.87.17-1.3.13-1.22-.68-1.88-1.87-1.51-.38.11-.73.3-1.11.43-.36.13-.77.36-1.11-.02-.28-.34-.15-.77-.04-1.15.04-.11.09-.23.15-.32.32-.7.73-1.43.17-2.13-.6-.75-1.43-.55-2.22-.34-.47.13-.98.19-1.32-.26-.38-.51.06-.89.34-1.26.19-.24.41-.47.58-.75.64-1.02.32-1.88-.83-2.2-.43-.11-.87-.13-1.3-.17-.41-.06-.85-.08-.98-.55-.13-.45.23-.73.51-1,.21-.19.45-.34.66-.51.53-.43.89-.96.72-1.66-.19-.64-.68-.96-1.32-1.09-.26-.06-.53-.13-.79-.24-.34-.13-.66-.32-.66-.75,0-.38.26-.55.55-.72.41-.23.87-.43,1.26-.7,1-.7,1-1.58.08-2.36-.57-.45-1.7-.58-1.53-1.47.17-.94,1.26-.73,2.02-.94,1.15-.32,1.45-1.36.68-2.32-.47-.6-1.49-1.06-1.04-1.96.38-.75,1.3-.28,1.98-.3,1.36-.02,1.9-.94,1.36-2.2-.28-.64-1.19-1.26-.58-2,.55-.64,1.34-.02,2.02.13,1.39.3,2.15-.49,1.81-1.9-.06-.19-.13-.38-.17-.57-.09-.47-.28-1.02.15-1.34.49-.38,1-.13,1.43.21.6.45,1.24.79,2,.43.81-.41.64-1.21.66-1.9,0-.55-.13-1.22.45-1.51.68-.34,1.09.28,1.51.68.51.45.94,1.04,1.75.81.77-.24.96-.87,1.06-1.58.09-.57.06-1.34.75-1.49.77-.19,1.04.58,1.36,1.11.34.55.62,1.15,1.41,1.11.81-.02,1.19-.53,1.43-1.22.04-.11.09-.23.15-.32.24-.45.43-1.02,1.07-.98.66.04.73.66.89,1.13.23.73.4,1.53,1.3,1.7.89.15,1.34-.51,1.81-1.15.3-.41.64-.89,1.24-.7.6.19.47.75.55,1.22.06.34.08.72.17,1.06.3,1.11.96,1.39,2,.87.09-.06.21-.13.3-.19.6-.34,1.09-1.22,1.87-.7.7.45.19,1.26.11,1.88-.17,1.6.64,2.24,2.15,1.64.19-.08.38-.17.55-.26.51-.21,1.04-.34,1.45.11.38.4.02.83-.13,1.21-.09.23-.21.43-.3.66-.55,1.3.17,2.24,1.54,2.11.72-.06,1.62-.66,2.09.17.41.73-.47,1.24-.87,1.83-.79,1.15-.3,2.24,1.07,2.39.13.02.24.02.36.02.58.04,1.34-.11,1.56.58.23.72-.51,1-.92,1.38-.51.45-1.13.85-.96,1.68.17.81.79,1.11,1.54,1.26.32.08.62.21.89.38.68.41.64.89,0,1.28ZM125.46,127.94c-.17.45-.53.6-.92.68-.55.13-1.09.24-1.64.28-2.24.17-1.71.47-2.11,2.45-.09.53.24.81.68,1,.75.36,1.51.72,2.28,1.04.72.3.98.81.72,1.54-.28.72-.21,1.79-1.45,1.7-.72-.06-1.43-.13-2.15-.23-.85-.11-1.32.19-1.75,1.02-.66,1.22-.41,2,.72,2.64.3.19.53.49.83.7.81.55,1.21,1.09.6,2.15-.57,1-1.17,1.32-2.22.9-.55-.23-1.17-.3-1.7-.57-.79-.4-1.24-.11-1.83.49-.96.98-.94,1.81-.04,2.73.19.21.34.45.51.68,1.15,1.56,1.13,1.6-.3,2.88-.58.51-1.09.58-1.7.09-.43-.36-.92-.64-1.38-.96-1.32-.96-2.3-.79-3.24.53-.23.32-.17.6-.06.9.24.68.51,1.34.75,2.02.51,1.41-.26,2.6-1.75,2.75-.41.04-.66-.17-.9-.47-.34-.43-.7-.87-1.04-1.3-1.11-1.41-1.17-1.43-2.77-.7q-.94.41-.87,2.11c.04.4,0,.81.11,1.19.36,1.21-.23,1.62-1.3,1.92-1.09.32-1.75.13-2.07-1.02-.11-.38-.32-.72-.51-1.07-.75-1.56-1.36-1.79-3.01-1.21-.41.15-.57.41-.62.79-.15.81-.38,1.64-.43,2.47-.09,1.22-.96,1.04-1.75,1.06-.79.02-1.56.06-1.62-1.07-.02-.51-.15-1.02-.24-1.53-.26-1.66-.77-2.03-2.47-1.96-.45.02-.77.17-.96.58-.24.58-.55,1.15-.81,1.73-.7,1.51-1.64,1.79-3.09.9-.38-.24-.49-.57-.43-1.02.08-.68.02-1.38.19-2.02.32-1.24-.34-1.64-1.32-2.09-1.09-.53-1.62,0-2.19.73-.23.3-.43.57-.68.85-1.17,1.39-1.43,1.41-2.9.32-.58-.43-.72-.9-.43-1.54.21-.47.34-1,.58-1.45.6-1.11.34-1.87-.72-2.58-.77-.53-1.3-.6-2-.02-.47.38-1.02.64-1.47,1.04-.72.62-1.28.57-1.96-.09-1.28-1.22-1.3-1.22-.28-2.64.19-.26.4-.51.58-.77,1.02-1.43.9-2.17-.47-3.26-.38-.32-.73-.26-1.11-.13-.79.3-1.58.57-2.36.9-.87.4-1.28-.11-1.58-.75-.3-.66-1.13-1.32-.15-2.09.47-.36.89-.83,1.39-1.13,1.19-.7,1.24-1.49.64-2.68-.41-.77-.87-1.06-1.68-.96-.6.08-1.19.13-1.79.23-.94.13-1.47-.23-1.71-1.19-.4-1.47-.38-1.62,1.07-2.22.28-.13.58-.26.87-.4,1.71-.83,1.9-1.26,1.36-3.07-.17-.51-.55-.66-.98-.73-.6-.09-1.19-.19-1.77-.26-1.66-.26-2.13-1.02-1.71-2.66.13-.53.53-.7.96-.79.53-.11,1.09-.28,1.64-.26,1.41.02,1.96-.6,2.03-2,.06-.81-.09-1.28-.85-1.58-.47-.19-.94-.43-1.41-.64-1.54-.66-1.85-1.7-.92-3.09.26-.4.64-.45,1.04-.41.77.06,1.51.13,2.26.21.77.09,1.26-.15,1.56-.92.68-1.66.72-1.64-.7-2.75-.32-.24-.58-.57-.92-.77-.9-.55-.94-1.17-.43-2.09.57-1.07,1.19-1.53,2.34-.85.28.15.6.21.9.32,1.64.62,2.47.28,3.2-1.24.19-.4.02-.68-.19-.98-.51-.72-.98-1.45-1.53-2.13-.51-.62-.36-1.11.19-1.54.6-.47.98-1.53,2.05-.9.55.32,1.06.72,1.58,1.09,1.22.89,2.47.64,3.24-.64.23-.34.15-.68.02-1.02-.24-.64-.43-1.3-.73-1.9-.43-.92-.26-1.49.66-2.05,1.02-.64,1.79-.77,2.47.4.17.32.43.57.66.85,1.09,1.38,1.17,1.38,2.79.68.66-.3,1.02-.66.87-1.45-.13-.58-.06-1.19-.11-1.79-.17-1.34,1.04-2.43,2.37-2.17.38.06.53.34.66.62.28.58.57,1.15.83,1.73.68,1.39,1.64,1.73,3.07,1.11.34-.15.47-.4.55-.73.13-.66.26-1.32.4-2,.26-1.45,1.3-2.03,2.73-1.53.45.17.57.51.64.92.09.64.26,1.26.3,1.88.08,1.13.68,1.54,1.75,1.68,1.07.15,1.66-.23,1.98-1.21.11-.38.34-.73.51-1.09.72-1.58.72-1.54,2.39-1.13.9.24,1.3.64,1.09,1.6-.15.73-.09,1.53-.23,2.26-.13.73.28,1.06.85,1.22.7.21,1.39,1.02,2.17.15.57-.66,1.15-1.32,1.68-2.02.55-.75,1.11-.62,1.75-.19.64.43,1.66.66,1.19,1.83-.3.79-.6,1.56-.9,2.36-.47,1.22.72,1.41,1.26,2.02.47.51.98.4,1.49.02.64-.49,1.3-.92,1.94-1.39,1.17-.85,1.6.36,2.28.83.6.41.58.96.11,1.53-.34.4-.6.85-.96,1.24-.85.96-1.04,1.81,0,2.85.6.58,1.04.9,1.83.51.43-.21.9-.36,1.36-.51,1.66-.6,2.37-.23,2.86,1.49.11.41.04.7-.28.96-.45.38-.9.79-1.36,1.15-1.47,1.17-1.56,1.77-.53,3.28.26.4.62.47,1.04.43.72-.04,1.43-.11,2.13-.21.94-.13,1.49.17,1.75,1.15.4,1.47.36,1.66-1.02,2.3-.3.13-.6.24-.89.38-1.77.75-1.96,1.15-1.39,3.01.15.53.53.68.96.75.6.11,1.19.19,1.79.28,1.62.24,2.22,1.24,1.7,2.75ZM170.9,148.41c.64.19.94.55.85,1.22-.09.7-.64.6-1.09.62-.64.06-1.3-.04-1.53.81-.24.83.28,1.15.83,1.51.47.3.96.55.64,1.3-.34.75-.87.58-1.41.45-.72-.17-1.3-.19-1.7.6-.38.75.17,1.13.58,1.49.49.47.66.87.24,1.45-.47.66-.94.38-1.45.06-.55-.34-1.06-.64-1.7-.02-.64.62-.34,1.13,0,1.7.28.45.53.92.02,1.39-.57.49-1.02.15-1.51-.15-.4-.24-.64-.79-1.21-.68-.96.19-1.17.83-.92,1.71.15.6.26,1.17-.49,1.49-.81.36-1.06-.26-1.38-.75-.32-.47-.43-1.17-1.3-.92-.79.23-1.06.75-.98,1.53.04.68-.13,1.17-.92,1.28-.89.13-.77-.58-.98-1.06-.23-.53-.28-1.13-1.15-1.13-.81.02-1.02.51-1.17,1.09-.17.66-.45,1.07-1.22.98-.87-.09-.7-.72-.72-1.24-.04-.62-.08-1.17-.83-1.41-.81-.23-1.09.26-1.39.79-.34.6-.66,1.07-1.49.7-.87-.38-.49-.96-.34-1.51.17-.57.23-1.04-.38-1.45-.68-.47-1.09-.13-1.56.28-.13.13-.3.26-.43.41-.4.41-.77.23-1.17-.04-.41-.28-.47-.6-.24-1.02.11-.21.19-.45.32-.64.34-.57.28-1.02-.21-1.49-.49-.49-.89-.32-1.39-.06-.53.26-1.09.73-1.7,0-.57-.7-.02-1.09.36-1.51.47-.53.73-1.02.32-1.7-.41-.68-.94-.4-1.49-.28-.55.13-1.13.28-1.43-.41-.3-.68.11-1.02.6-1.38.45-.34,1.13-.49.92-1.34-.19-.83-.83-.85-1.47-.94-.58-.08-1.19-.19-1.26-.98-.09-.85.6-.79,1.09-.98.57-.21,1.15-.32,1.17-1.13,0-.85-.53-1.09-1.19-1.24-.58-.15-1.04-.4-.96-1.13.08-.81.62-.79,1.21-.79s1.21,0,1.43-.77c.26-.83-.32-1.13-.83-1.51-.45-.32-1.02-.57-.72-1.3.23-.51.62-.57,1.09-.51.32.06.62.13.94.19.51.09.83-.15,1.07-.57.26-.43.26-.81-.09-1.19-.21-.19-.38-.41-.57-.62-.38-.34-.49-.7-.15-1.15.34-.47.72-.58,1.22-.32.24.13.51.23.75.36.58.32.98.02,1.38-.36.43-.4.23-.77.06-1.19-.19-.47-.66-.87-.45-1.43.28-.77,1.21-.81,1.96-.02.49.51.87.68,1.54.34.73-.38.49-.92.38-1.43-.17-.68-.28-1.3.53-1.6.79-.28,1.06.34,1.36.85.28.43.47.94,1.17.79.66-.15.89-.62.96-1.21.02-.13.06-.24.08-.36.06-.51-.02-1.07.75-1.15.7-.06,1,.32,1.17.92.17.6.24,1.26,1.17,1.22.89-.04,1.02-.66,1.21-1.26.15-.49.19-1,.98-.9.83.09.94.58.92,1.24-.04.68.08,1.22.89,1.47.83.24,1.04-.36,1.34-.85.32-.55.6-1.02,1.39-.72.85.32.58.89.45,1.47s-.34,1.13.38,1.56c.75.45,1.22.06,1.68-.38.49-.47.89-.73,1.54-.23.72.55.15,1-.08,1.43-.26.58-.49,1.02.06,1.6.58.62,1.09.36,1.6.06.62-.36,1.11-.51,1.64.21.53.73-.17,1.02-.49,1.36-.43.45-.85.79-.41,1.51.43.72.94.77,1.62.51.64-.24,1.13-.17,1.49.53.4.81-.26.94-.7,1.24-.53.34-1.13.6-.87,1.47.23.81.79.9,1.47.87.66-.04,1.19.13,1.3.9.11.77-.55.75-1,.96-.55.24-1.26.26-1.3,1.15-.04.94.64,1.09,1.28,1.3ZM198.3,106.03c-1.45.79-1.49,1.47-.15,2.41.32.23.77.43.73.87-.02.51-.57.47-.92.58-1.77.53-1.96,1.07-.81,2.47.23.26.55.53.38.92-.15.43-.58.34-.92.36-2.03.11-2.2.4-1.36,2.3.13.3.3.6.08.9-.26.36-.64.23-.98.13-.51-.13-1.02-.36-1.53-.13-.9.41-.62,1.17-.43,1.87.08.34.28.72-.09,1-.34.26-.68.04-1-.13-.26-.11-.49-.28-.75-.38-.83-.34-1.39,0-1.53.9-.02.15,0,.32-.02.47-.04.45.21,1.07-.38,1.28-.51.19-.85-.32-1.19-.64-1.11-1-1.77-.79-2.19.66-.13.43-.08,1.06-.68,1.13-.51.06-.7-.49-.92-.83-.9-1.3-1.58-1.28-2.37.08-.21.38-.28.92-.87.87-.53-.06-.58-.57-.72-.98-.55-1.54-1.22-1.66-2.39-.41-.28.3-.53.81-1.04.58-.45-.17-.34-.68-.38-1.06-.15-1.64-.81-1.98-2.17-1.13-.38.23-.73.64-1.19.3-.41-.3-.17-.81-.17-1.15.13-1.58-.4-2.02-1.79-1.53-.43.15-.9.53-1.34.09-.4-.41,0-.83.17-1.21.58-1.45.13-2.05-1.39-1.87-.43.06-.94.21-1.22-.21-.32-.47.13-.81.38-1.15.96-1.36.7-1.92-.96-2.2-.41-.08-.96-.08-1.13-.53-.17-.53.38-.73.7-1,1.19-.96,1.07-1.71-.32-2.36-.38-.17-.94-.21-.94-.77s.51-.64.9-.85c1.38-.68,1.41-1.41.15-2.36-.34-.26-.87-.45-.75-.96.11-.51.68-.49,1.07-.6,1.6-.45,1.77-1.02.7-2.34-.23-.26-.57-.53-.41-.92.19-.49.66-.36,1.04-.38,1.77-.09,2.05-.57,1.32-2.13-.17-.36-.4-.75-.13-1.13.32-.41.73-.13,1.11-.04,1.7.41,2.09.02,1.75-1.75-.08-.34-.23-.73.09-1,.36-.32.73-.09,1.09.09,1.66.79,2.13.53,2.26-1.28.02-.4-.06-.87.43-1.02.47-.15.72.26,1,.53,1.15,1.15,1.79.96,2.28-.64.13-.4.11-.96.66-1.04.53-.08.68.47.92.81.89,1.28,1.66,1.26,2.36-.09.21-.4.36-.87.9-.79.47.06.57.49.7.87.6,1.66,1.13,1.75,2.37.45.28-.28.51-.7.98-.57.53.15.47.66.51,1.09.15,1.71.81,2.02,2.22,1.04.32-.23.64-.62,1.06-.38.47.26.32.77.26,1.19-.24,1.81.21,2.17,1.94,1.51.34-.11.68-.36,1-.04.36.36.17.73.02,1.11-.64,1.73-.34,2.13,1.49,2.03.43-.02.96-.17,1.17.32.19.41-.19.73-.41,1.06-.98,1.3-.7,1.98.9,2.2.4.06.85.04,1.02.47.21.57-.3.75-.62,1.02-1.24,1.04-1.11,1.83.38,2.41.4.17.96.17.98.73.02.53-.53.64-.9.83Z"/>
  <path d="M44.6,49.54c-.03,7.76-6.1,14.93-15.15,15.02-8.22.09-15.09-6.83-15.1-14.97-.01-8.31,6.86-15.17,15.16-15.15,8.27.02,15.08,6.84,15.08,15.1Z"/>
  <path d="M34.97,79.01c0-1.87.01-3.75,0-5.62-.01-1.38.67-2.31,1.92-2.72,2.77-.92,5.2-2.4,7.43-4.26.93-.78,1.97-.88,3.01-.3,3.37,1.91,6.76,3.77,10.06,5.8,3,1.85,3.04,4.81.45,7.26-4.79,4.53-10.35,7.68-16.63,9.63-1.69.52-3.28.65-4.72-.64-1.09-.98-1.49-2.24-1.51-3.64-.03-1.83,0-3.67,0-5.5Z"/>
  <path d="M70.7,49.47c-.16,3.53-.47,6.93-1.39,10.26-.81,2.93-3.64,4.18-6.32,2.7-3.31-1.84-6.58-3.75-9.86-5.66-1.41-.82-1.72-1.58-1.47-3.18.44-2.78.46-5.56-.05-8.33-.24-1.27.19-2.22,1.26-2.85,3.41-1.99,6.82-3.99,10.29-5.88,2.62-1.42,5.31-.22,6.13,2.63.97,3.39,1.25,6.89,1.41,10.3Z"/>
  <path d="M228.81,128.67c0,2.18,0,3.9,0,5.61,0,1.43-.62,2.41-2,2.93-2.63,1-5.08,2.31-7.2,4.19-.92.81-1.96.94-3.09.28-3.31-1.93-6.66-3.78-9.95-5.75-2.48-1.48-2.86-4.5-.84-6.52,4.99-4.98,10.89-8.43,17.72-10.23,2.58-.68,4.71.74,5.18,3.38.39,2.18.08,4.38.18,6.1Z"/>
  <path d="M193.57,158.15c.21-3.29.39-6.55,1.25-9.72.95-3.48,3.68-4.64,6.79-2.85,3.04,1.74,6.09,3.48,9.12,5.24,1.64.95,1.9,1.53,1.61,3.42-.4,2.66-.46,5.32.07,7.96.24,1.21-.14,2.16-1.17,2.76-3.4,1.99-6.79,4.03-10.28,5.87-2.69,1.42-5.15.15-6.03-2.79-.96-3.24-1.14-6.58-1.38-9.88Z"/>
  <path d="M34.97,19.92c0-1.75,0-3.51,0-5.26,0-.73.12-1.43.37-2.11.59-1.63,1.2-1.96,2.88-1.56,2.25.53,4.48,1.15,6.75,1.58,1.86.36,3.41,1.21,4.89,2.35,2.78,2.14,5.6,4.22,8.42,6.29,1.61,1.18,1.91,2.77.73,4.41-.47.65-1.05,1.18-1.76,1.59-3.28,1.89-6.55,3.8-9.83,5.68-1.16.66-2.17.55-3.19-.33-2.13-1.86-4.55-3.2-7.18-4.2-1.59-.6-2.05-1.25-2.06-2.95-.02-1.83,0-3.66,0-5.5Z"/>
  <path d="M225.27,185.03c-.17,3.68-.34,7.3-.48,10.92-.05,1.2-.72,1.13-1.55.89-5.61-1.57-10.66-4.22-15.12-7.96-.73-.61-1.46-1.24-2.14-1.91-2.29-2.25-2.07-5.19.66-6.86,3.33-2.04,6.76-3.92,10.16-5.84.93-.53,1.84-.35,2.67.3.69.54,1.37,1.11,2.1,1.58.77.5,1.3,1.14,1.67,1.97.53,1.2,1.08,2.4,1.68,3.57.57,1.11.25,2.27.35,3.34Z"/>
  <path d="M242.53,54.02c-.01,4.41-3.64,8.02-8,7.96-4.27-.05-7.89-3.73-7.89-8.02,0-4.35,3.63-7.98,8.01-8.01,4.33-.03,7.9,3.61,7.89,8.07Z"/>
  <path d="M201.87,61.58c.26,4.26-3.2,8.13-7.69,8.26-4.73.13-7.89-3.31-8.24-7.48-.37-4.34,3.23-8.32,7.77-8.45,4.06-.12,7.95,2.94,8.16,7.68Z"/>
  <path d="M218.25,70.32c4.42,0,7.98,3.56,7.96,7.97-.02,4.33-3.6,7.9-7.93,7.91-4.44,0-7.97-3.52-7.97-7.95,0-4.52,3.41-7.93,7.94-7.92Z"/>
  <path d="M210.32,45.52c-5.04,0-8.76-4.43-7.86-9.38.15-.81.63-1.36,1.26-1.82,1.85-1.38,3.72-2.75,5.56-4.15.74-.56,1.55-.6,2.39-.45,4.08.71,7.02,4.56,6.62,8.67-.39,3.99-3.89,7.13-7.96,7.13Z"/>
  <path d="M24,20c0,1.87-.02,3.75,0,5.62.02,1.33-.56,2.2-1.8,2.65-2.8,1.02-5.37,2.44-7.6,4.43-.34.3-.72.49-1.17.57-1.18.2-1.6-.2-1.29-1.35,1.91-6.99,3.86-13.98,5.76-20.97.23-.83.81-1.02,1.5-1.12,2.3-.32,4.46,1.72,4.58,4.31,0,.08,0,.16,0,.24,0,1.87,0,3.75,0,5.62Z"/>
  <path d="M24,79.16c0,1.87.02,3.74,0,5.61-.02,1.53-.68,2.77-1.9,3.68-1.11.83-1.51.69-1.94-.62-2.1-6.43-4.19-12.87-6.29-19.3-.2-.61-.41-1.21-.61-1.81-.08-.26-.28-.55-.02-.78.29-.26.61-.07.88.09.24.14.46.32.67.49,2.16,1.73,4.47,3.19,7.12,4.07,1.53.51,2.08,1.34,2.09,2.95.01,1.87,0,3.74,0,5.61Z"/>
  <path d="M246.63,121.16l-.99,2.78c-.2.56-.53,1.07-.96,1.49-1.06,1.01-2.09,1.99-3.37,3.21-.19.19-.64.68-1.28.5-.39-.14-.46-.46-.46-1.02,0-.36-.01-.98-.01-2.15.08-1.13-.14-2.49.21-3.82.61-2.28,2.64-3.56,4.93-3,.36.08.72.19,1.08.3.72.22,1.11,1.01.86,1.72Z"/>
  <path d="M214.16,50.98c-3.71-.02-6.76,3.13-6.75,6.97.02,3.88,3.03,6.91,6.91,6.91,3.62,0,6.86-3.24,6.86-6.91s-3.15-6.95-7.03-6.97ZM214.31,63.88c-3.47,0-6.1-2.62-6.07-6.03.04-3.35,2.68-5.92,6.09-5.9,3.45,0,5.88,2.51,5.86,6.05,0,3.39-2.49,5.88-5.88,5.88Z"/>
  <path d="M202.5,46.64c-1.79,0-3.45,1.62-3.41,3.33.04,1.9,1.6,3.45,3.43,3.43,1.83-.02,3.5-1.58,3.5-3.28.02-1.9-1.6-3.5-3.52-3.49ZM202.63,52.58c-1.51.04-2.56-1-2.56-2.52s.98-2.58,2.39-2.58c1.45-.02,2.6,1.11,2.6,2.54s-1.06,2.54-2.43,2.56Z"/>
  <path d="M226.07,62.43c-1.83-.02-3.47,1.49-3.5,3.22-.06,1.87,1.51,3.52,3.32,3.54,1.88.04,3.56-1.49,3.6-3.28.06-1.79-1.6-3.47-3.41-3.49ZM225.99,68.37c-1.47.02-2.43-.96-2.45-2.47-.02-1.6.9-2.6,2.41-2.66,1.41-.04,2.56,1.11,2.58,2.54.02,1.43-1.11,2.58-2.54,2.58Z"/>
  <path d="M206.42,66.26c-1.88,0-3.5,1.54-3.5,3.35s1.64,3.45,3.45,3.41c1.96-.02,3.35-1.45,3.33-3.43-.02-1.92-1.39-3.33-3.28-3.33ZM206.44,72.21c-1.51.04-2.54-1-2.54-2.54-.02-1.58.96-2.62,2.45-2.6,1.41.02,2.52,1.09,2.54,2.47.04,1.47-1.06,2.64-2.45,2.68Z"/>
  <path d="M222.26,42.8c-1.88-.02-3.52,1.56-3.52,3.37.02,1.87,1.6,3.43,3.47,3.41,1.9-.02,3.3-1.43,3.3-3.35.02-1.88-1.41-3.41-3.24-3.43ZM222.13,48.77c-1.39-.04-2.54-1.15-2.56-2.51-.02-1.34,1.24-2.62,2.58-2.64,1.41-.02,2.56,1.15,2.56,2.58-.02,1.47-1.13,2.58-2.58,2.56Z"/>
  <path d="M93.31,135.01c-4.43,0-8.16-3.63-8.21-8-.05-4.28,3.78-8.1,8.13-8.09,4.36,0,8,3.64,8.03,8.01.03,4.34-3.64,8.07-7.95,8.08Z"/>
  <path d="M112.92,131.63c2.72,0,2.74,0,1.86,2.58-.81,2.39-2.02,4.58-3.33,6.72-.62,1.01-1.62,1.63-2.49,2.38-.35.3-.65.21-.89-.16-.19-.3-.37-.61-.57-.91q-1.59-2.35.06-4.62c.84-1.17,1.56-2.38,1.95-3.8.56-2,.94-2.19,3.42-2.2Z"/>
  <path d="M94.09,149.61c-2.42.12-4.58-.13-6.72-.67-.88-.22-.99-.47-.64-1.38,1.01-2.57,2.66-3.66,5.44-3.04,1.6.36,3.24.14,4.85-.14.51-.09.84.13,1.08.54.56.96,1.1,1.94,1.68,2.88.42.69.04.87-.53,1.09-1.74.67-3.53.91-5.17.72Z"/>
  <path d="M73.6,131.64c.44,0,.88.02,1.32,0,.69-.03,1.1.25,1.34.92.82,2.31,1.92,4.46,3.65,6.25.4.42.56.83.21,1.38-.57.91-1.13,1.83-1.64,2.78-.41.75-.79.58-1.29.1-1.76-1.71-3.17-3.68-4.28-5.87-.69-1.35-1.32-2.71-1.68-4.21-.24-1.01,0-1.44,1.06-1.37.44.03.88,0,1.32,0Z"/>
  <path d="M112.88,122.3c-2.29.08-2.28.08-3.14-2-.73-1.78-1.62-3.48-2.96-4.88-.66-.69-.74-1.34-.21-2.13.46-.7.9-1.41,1.29-2.16.4-.77.78-.88,1.43-.23,2.88,2.89,4.89,6.27,5.94,10.22.22.83-.03,1.22-.91,1.18-.48-.02-.96,0-1.44,0Z"/>
  <path d="M94.07,104.33c1.65-.13,3.37.04,5.05.67.78.29,1.1.52.57,1.32-.55.83-1.02,1.71-1.5,2.58-.31.56-.71.75-1.37.62-2.33-.43-4.66-.58-6.99.04-.69.18-1.24,0-1.6-.68-.49-.91-1-1.81-1.55-2.69-.47-.74-.1-.98.55-1.15,2.21-.58,4.45-.86,6.85-.71Z"/>
  <path d="M73.55,122.31c-2.79,0-2.83-.01-1.88-2.65,1.18-3.29,2.92-6.26,5.44-8.73.6-.59,1.01-.66,1.44.17.44.85.94,1.66,1.45,2.47.4.65.3,1.18-.22,1.71-1.39,1.42-2.29,3.13-3.06,4.94-.95,2.25-.34,2.09-3.16,2.1Z"/>
  <path d="M94.92,201.97c0,2.66-2.02,4.74-4.56,4.72-2.74-.02-4.88-2.12-4.83-4.74.04-2.45,2.28-4.71,4.68-4.72,2.54-.02,4.71,2.17,4.71,4.75Z"/>
  <path d="M74.32,189.46c-.02,2.55-2.14,4.68-4.64,4.66-2.63-.03-4.8-2.23-4.75-4.84.04-2.5,2.2-4.56,4.76-4.55,2.68,0,4.65,2.02,4.63,4.73Z"/>
  <path d="M73.68,210.65c-2.59.01-4.7-2.1-4.71-4.69,0-2.58,2.12-4.7,4.71-4.7,2.46,0,4.64,2.17,4.67,4.66.04,2.57-2.09,4.71-4.68,4.72Z"/>
  <path d="M81.65,185.35c0-2.63,2.03-4.7,4.58-4.67,2.63.03,4.67,2.11,4.66,4.76-.01,2.69-1.94,4.62-4.6,4.63-2.71,0-4.64-1.97-4.64-4.71Z"/>
  <path d="M80.01,191.57c-2.2-.06-4.07,1.73-4.11,3.96-.02,2.36,1.79,4.26,4.07,4.3,2.19.02,3.99-1.79,4.03-4.05.06-2.3-1.7-4.13-3.99-4.2ZM79.94,199.09c-1.81.04-3.45-1.6-3.45-3.41.02-1.75,1.73-3.45,3.49-3.43,1.87.02,3.37,1.51,3.39,3.32,0,1.94-1.51,3.5-3.43,3.52Z"/>
  <path d="M81.97,201.63c-1.13-.04-2.19.96-2.19,2.07.02,1.11,1.02,2.07,2.17,2.09,1.02.02,1.92-.92,1.94-2.02.04-1.13-.85-2.11-1.92-2.15ZM81.82,205.04c-.87,0-1.28-.55-1.26-1.38,0-.89.58-1.22,1.36-1.38.79.17,1.36.64,1.32,1.43-.04.77-.58,1.32-1.41,1.32Z"/>
  <path d="M78.09,185.62c-1.17-.02-2.07.87-2.11,2-.02,1.19.9,2.11,2.11,2.11,1.04,0,1.96-.92,1.96-1.98.02-1.15-.89-2.13-1.96-2.13ZM78,189.01c-.85,0-1.24-.57-1.3-1.36.08-.9.6-1.34,1.41-1.32.81.02,1.34.53,1.3,1.38-.04.83-.57,1.32-1.41,1.3Z"/>
  <path d="M72.1,195.55c-1.07-.09-2.02.68-2.15,1.79-.15,1.19.68,2.24,1.85,2.34,1.06.08,2.11-.83,2.22-1.9.09-1.04-.83-2.11-1.92-2.22ZM71.93,198.97c-.85-.04-1.38-.53-1.38-1.34s.51-1.32,1.34-1.34c.89.04,1.41.43,1.38,1.32-.04.83-.43,1.38-1.34,1.36Z"/>
  <path d="M87.94,191.7c-1.15,0-1.98.89-1.98,2.09.02,1.13.81,1.96,1.94,2,1.15.02,2.02-.83,2.02-2.03s-.81-2.05-1.98-2.05ZM88.06,195.09c-.89-.11-1.53-.49-1.47-1.41.06-.85.64-1.24,1.47-1.21.79.04,1.28.47,1.26,1.26,0,.81-.45,1.3-1.26,1.36Z"/>
  <path d="M158.88,147.1c.03,2.29-2.13,4.44-4.45,4.44-2.37,0-4.46-2.16-4.46-4.59,0-2.29,2.16-4.32,4.57-4.31,2.23,0,4.31,2.15,4.34,4.46Z"/>
  <path d="M151.98,159.44c-1.81-.41-3.61-1.27-5.19-2.6-.19-.16-.28-.35-.14-.62.41-.78,1.89-1.25,2.73-.86.83.38,1.65.79,2.51,1.08,1.09.38,1.62,1.18,1.46,2.31-.1.77-.67.64-1.38.7Z"/>
  <path d="M159.08,158.57c-.27.08-.45-.04-.6-.26-.51-.76-.17-2.29.65-2.76.76-.44,1.46-.92,2.04-1.62.72-.86,2.44-.75,3.15.1.19.23.19.44.02.64-1.33,1.54-2.78,2.94-4.68,3.79-.18.08-.39.08-.58.12Z"/>
  <path d="M150.62,137.56c.1.56-.32.76-.71.96-1,.51-1.86,1.19-2.66,1.98-.54.54-2.35.24-2.74-.4-.2-.32.03-.52.19-.73,1.22-1.68,2.84-2.86,4.73-3.68.68-.3,1.06-.08,1.08.7.01.4.07.79.1,1.18Z"/>
  <path d="M166.91,146.61c-.02.35.03.73-.08,1.06-.18.54.42,1.54-.69,1.54-1.21,0-2.04-.81-2.04-1.83,0-1.12-.08-2.22-.44-3.29-.1-.3-.2-.65.13-.88.57-.41.99-1.25,1.74-1.11.67.13.69.99.87,1.57.29.95.46,1.93.5,2.94Z"/>
  <path d="M142.02,147.38c-.02-.2-.09-.36-.06-.51.17-.66-.38-1.67.64-1.89,1.03-.22,2.15.91,2.14,1.96-.01.84-.01,1.7.3,2.47.49,1.19-.07,1.81-.98,2.42-.69.47-1.07.34-1.32-.41-.45-1.32-.77-2.67-.72-4.04Z"/>
  <path d="M156.01,134.81c2.27.34,4.19.92,5.8,2.27.58.48.56.79-.04,1.29-.89.76-1.67,1.06-2.71.25-.48-.38-1.14-.69-1.74-.73-1.54-.11-1.71-1.14-1.81-2.3-.05-.53.1-.87.49-.78Z"/>
  <path d="M188.41,116.36c-2.13.02-3.68-1.51-3.71-3.66-.03-1.97,1.62-3.65,3.61-3.69,2.03-.04,3.76,1.61,3.81,3.65.05,2-1.64,3.68-3.71,3.7Z"/>
  <path d="M175.17,102.71c-2.01,0-3.67-1.71-3.64-3.77.03-2.05,1.79-3.66,3.95-3.62,1.79.04,3.54,1.9,3.49,3.73-.05,2.02-1.75,3.66-3.8,3.66Z"/>
  <path d="M174.95,116.11c-2.09,0-3.69-1.62-3.68-3.74.01-2.02,1.68-3.63,3.8-3.67,1.83-.03,3.57,1.75,3.56,3.66-.02,2.13-1.6,3.74-3.68,3.75Z"/>
  <path d="M188.65,102.96c-2.09,0-3.66-1.54-3.69-3.6-.03-2.07,1.65-3.74,3.74-3.71,2.02.02,3.67,1.64,3.7,3.65.03,2.07-1.6,3.67-3.75,3.67Z"/>
  <path d="M181.72,102.64c-1.68.04-3.09,1.47-3.07,3.17,0,1.92,1.43,3.37,3.28,3.33,1.68-.04,3.09-1.54,3.09-3.32s-1.47-3.2-3.3-3.18ZM181.87,108.52c-1.62-.06-2.77-1.21-2.71-2.71.06-1.43,1.3-2.62,2.73-2.6,1.49.04,2.6,1.24,2.58,2.75-.04,1.45-1.19,2.6-2.6,2.56Z"/>
  <path d="M209.37,57.97c0-2.74,2.19-4.96,4.91-4.98,2.57-.02,4.89,2.27,4.94,4.88.05,2.67-2.22,4.94-4.96,4.96-2.66.02-4.89-2.19-4.89-4.86Z"/>
  <path d="M77.05,195.65c-.02-1.49,1.32-2.85,2.8-2.86,1.64-.01,3.05,1.32,3.05,2.88,0,1.59-1.42,3-2.99,2.97-1.51-.02-2.84-1.41-2.85-2.99Z"/>
  <path d="M184.06,105.92c-.03,1.29-1.03,2.26-2.31,2.25-1.15,0-2.3-1.22-2.26-2.36.05-1.28,1.09-2.25,2.36-2.21,1.31.04,2.24,1.01,2.21,2.32Z"/>
</svg>
